# Reproduciendo un video local
La idea es reproducir un video que se encuentre descargado localmente en nuestro equipo donde vamos a realizar las pruebas.

### Requisitos
Necesitamos un video descargado de manera local
En este caso nuestro video tiene estas características.

``` bash
    Input #0, mov,mp4,m4a,3gp,3g2,mj2, from 'dives.mp4':=    0B f=0/0   
      Metadata:
        major_brand     : mp42
        minor_version   : 0
        compatible_brands: isommp42
        creation_time   : 2024-07-30T03:00:13.000000Z
        encoder         : Google
      Duration: 00:06:37.57, start: 0.000000, bitrate: 366 kb/s
      Stream #0:0(und): Video: h264 (Main) (avc1 / 0x31637661), yuv420p(tv, bt709), 640x360 [SAR 1:1 DAR 16:9], 235 kb/s, 25 fps, 25 tbr, 12800 tbn, 50 tbc (default)
        Metadata:
          creation_time   : 2024-07-30T03:00:13.000000Z
          handler_name    : ISO Media file produced by Google Inc. Created on: 07/29/2024.
          vendor_id       : [0][0][0][0]
      Stream #0:1(und): Audio: aac (LC) (mp4a / 0x6134706D), 44100 Hz, stereo, fltp, 127 kb/s (default)
        Metadata:
          creation_time   : 2024-07-30T03:00:13.000000Z
          handler_name    : ISO Media file produced by Google Inc. Created on: 07/29/2024.
          vendor_id       : [0][0][0][0]

```
